Run_30001
nRows=4
nColumns=164

# SIMM Motion File Header:
name Run_30001
datacolumns 164
datarows 4
otherdata 1
range 1.35833300 1.38333300
endheader
time	pelvis_tilt	pelvis_list	pelvis_rotation	pelvis_tx	pelvis_ty	pelvis_tz	hip_flexion_r	hip_adduction_r	hip_rotation_r	knee_angle_r	ankle_angle_r	hip_flexion_l	hip_adduction_l	hip_rotation_l	knee_angle_l	ankle_angle_l	lumbar_extension	lumbar_bending	lumbar_rotation	arm_flex_r	arm_add_r	arm_rot_r	elbow_flex_r	pro_sup_r	arm_flex_l	arm_add_l	arm_rot_l	elbow_flex_l	pro_sup_l	subtalar_angle_r	mtp_angle_r	subtalar_angle_l	mtp_angle_l	wrist_flex_r	wrist_dev_r	wrist_flex_l	wrist_dev_l	LASI_tx	LASI_ty	LASI_tz	RASI_tx	RASI_ty	RASI_tz	LPSI_tx	LPSI_ty	LPSI_tz	RPSI_tx	RPSI_ty	RPSI_tz	RTH1_tx	RTH1_ty	RTH1_tz	RTH2_tx	RTH2_ty	RTH2_tz	RTH3_tx	RTH3_ty	RTH3_tz	LTH1_tx	LTH1_ty	LTH1_tz	LTH2_tx	LTH2_ty	LTH2_tz	LTH3_tx	LTH3_ty	LTH3_tz	RTB1_tx	RTB1_ty	RTB1_tz	RTB2_tx	RTB2_ty	RTB2_tz	RTB3_tx	RTB3_ty	RTB3_tz	LTB1_tx	LTB1_ty	LTB1_tz	LTB2_tx	LTB2_ty	LTB2_tz	LTB3_tx	LTB3_ty	LTB3_tz	RCAL_tx	RCAL_ty	RCAL_tz	RTOE_tx	RTOE_ty	RTOE_tz	RMT5_tx	RMT5_ty	RMT5_tz	LCAL_tx	LCAL_ty	LCAL_tz	LTOE_tx	LTOE_ty	LTOE_tz	LMT5_tx	LMT5_ty	LMT5_tz	LACR_tx	LACR_ty	LACR_tz	RACR_tx	RACR_ty	RACR_tz	CLAV_tx	CLAV_ty	CLAV_tz	C7_tx	C7_ty	C7_tz	RUA1_tx	RUA1_ty	RUA1_tz	RUA2_tx	RUA2_ty	RUA2_tz	RUA3_tx	RUA3_ty	RUA3_tz	RLEL_tx	RLEL_ty	RLEL_tz	RMEL_tx	RMEL_ty	RMEL_tz	LUA1_tx	LUA1_ty	LUA1_tz	LUA2_tx	LUA2_ty	LUA2_tz	LUA3_tx	LUA3_ty	LUA3_tz	LLEL_tx	LLEL_ty	LLEL_tz	LMEL_tx	LMEL_ty	LMEL_tz	RFAsuperior_tx	RFAsuperior_ty	RFAsuperior_tz	RFAradius_tx	RFAradius_ty	RFAradius_tz	RFAulna_tx	RFAulna_ty	RFAulna_tz	LFAsuperior_tx	LFAsuperior_ty	LFAsuperior_tz	LFAradius_tx	LFAradius_ty	LFAradius_tz	LFAulna_tx	LFAulna_ty	LFAulna_tz
      1.35833300	      1.81684977	      1.65290059	      6.72957823	      0.74437361	      0.97764705	     -0.38044699	     33.21391912	     -7.23139775	     -6.85469516	    -99.04745010	     -6.84214658	     -5.85276176	      4.78330912	      4.97385466	    -24.36706353	     15.09329188	    -16.41064929	     -2.40915740	    -13.09018186	    -31.05137190	    -23.79996383	      4.07536112	    111.11332551	     65.40751506	     -1.30034002	    -33.51392664	     -1.47177225	    121.61526303	     99.95688541	      0.00000000	      0.00000000	      0.00000000	      0.00000000	      0.00000000	      0.00000000	      0.00000000	      0.00000000	      0.75012347	      0.99332295	     -0.50830111	      0.75115360	      1.00332342	     -0.25745778	      0.57975234	      1.01675463	     -0.40663902	      0.58487831	      1.01744121	     -0.32267379	      0.77202898	      0.83303379	     -0.20269053	      0.88640280	      0.75756165	     -0.21958052	      0.87687169	      0.62379825	     -0.20228946	      0.69202995	      0.85105246	     -0.54160267	      0.73367322	      0.73335381	     -0.52454229	      0.64512648	      0.60235312	     -0.51220824	      0.84473878	      0.45157882	     -0.26777868	      0.76678744	      0.45542538	     -0.21706776	      0.67800324	      0.39042052	     -0.28888149	      0.63091907	      0.35839467	     -0.43226641	      0.54422957	      0.27922686	     -0.47662819	      0.52602780	      0.20220097	     -0.40325480	      0.51429147	      0.43466360	     -0.29612248	      0.58255159	      0.22595435	     -0.31107304	      0.54423813	      0.24337523	     -0.22198608	      0.36149149	      0.13034252	     -0.39820088	      0.57200048	      0.07270000	     -0.39267334	      0.53587869	      0.05900928	     -0.47675427	      0.75925706	      1.42529459	     -0.57518778	      0.71397279	      1.45921542	     -0.20191357	      0.83368122	      1.40920227	     -0.34586081	      0.70583969	      1.49898794	     -0.39869051	      0.65672263	      1.37041000	     -0.13625296	      0.65382175	      1.29967823	     -0.12921972	      0.55084842	      1.31685637	     -0.11257089	      0.55179603	      1.23030455	     -0.06377963	      0.50586328	      1.21857677	     -0.13923749	      0.73748869	      1.35104415	     -0.63101555	      0.67871251	      1.27968655	     -0.62201754	      0.73237249	      1.26595478	     -0.67580627	      0.72681810	      1.16619353	     -0.72764637	      0.68817011	      1.11060725	     -0.66844263	      0.62258039	      1.18369643	     -0.07897160	      0.75326684	      1.11029432	     -0.15299268	      0.70439219	      1.06133199	     -0.15044055	      0.79471111	      1.17820733	     -0.69980063	      0.91347862	      1.18726649	     -0.56981063	      0.93389283	      1.13481845	     -0.60693570
      1.36666700	      1.73949289	      0.81683328	      7.00361323	      0.74606405	      0.98315464	     -0.38091731	     34.18769887	     -6.36830741	     -7.55679834	    -95.43417004	     -6.40001832	     -8.53619496	      3.46271544	      5.48714256	    -21.73097300	     12.15613633	    -16.02203201	     -1.20934104	    -14.05356973	    -32.26686755	    -24.16224923	      2.89931074	    112.03185993	     65.26668004	     -1.69566865	    -33.34370101	     -0.61363870	    122.56613545	     98.66323354	      0.00000000	      0.00000000	      0.00000000	      0.00000000	      0.00000000	      0.00000000	      0.00000000	      0.00000000	      0.75127280	      0.99643234	     -0.50926835	      0.75237163	      1.01006224	     -0.25827053	      0.58153082	      1.02201756	     -0.40724454	      0.58672250	      1.02350713	     -0.32267144	      0.77625742	      0.84148167	     -0.20300102	      0.89118829	      0.76794933	     -0.22083195	      0.88445156	      0.63295003	     -0.20358499	      0.69013543	      0.85436063	     -0.54085384	      0.72673711	      0.73594730	     -0.52347230	      0.63218482	      0.60871178	     -0.51080696	      0.86047959	      0.45650547	     -0.26983094	      0.78248596	      0.45403759	     -0.21909463	      0.69816089	      0.38236645	     -0.29002238	      0.61106549	      0.36466827	     -0.43241092	      0.52361042	      0.28714045	     -0.47813860	      0.50547849	      0.20844658	     -0.40527528	      0.53155431	      0.41348090	     -0.29890335	      0.61744887	      0.21148974	     -0.31325748	      0.57811689	      0.22586097	     -0.22418138	      0.34146174	      0.13939087	     -0.40095505	      0.54889567	      0.07324849	     -0.39351300	      0.51079491	      0.05910510	     -0.47644547	      0.76335929	      1.43245433	     -0.57331382	      0.71091842	      1.46533055	     -0.20175538	      0.83312483	      1.41596963	     -0.34293103	      0.70625000	      1.50462506	     -0.39769168	      0.65206298	      1.37839609	     -0.13650776	      0.64870535	      1.30775332	     -0.12872646	      0.54528384	      1.32565915	     -0.11467214	      0.54442812	      1.23989297	     -0.06540545	      0.49947845	      1.22764858	     -0.14186080	      0.74291181	      1.35824190	     -0.62974824	      0.68339579	      1.28760612	     -0.62308813	      0.73926794	      1.27292582	     -0.67454794	      0.73328806	      1.17296473	     -0.72581547	      0.69142077	      1.11824996	     -0.66735991	      0.61579366	      1.19403328	     -0.07813411	      0.74792938	      1.11981433	     -0.14812632	      0.69945870	      1.07068966	     -0.14652602	      0.80011307	      1.18533519	     -0.69608866	      0.91468097	      1.19618660	     -0.56290165	      0.93575042	      1.14288807	     -0.59779345
      1.37500000	      1.65340211	     -0.00755918	      7.16143757	      0.74787098	      0.98870964	     -0.38132307	     34.94055465	     -5.44688283	     -8.14487900	    -91.41707720	     -5.94821656	    -11.04032981	      2.15111437	      5.74834737	    -19.28204129	      8.70378733	    -15.61379612	     -0.02826993	    -14.87040334	    -33.41217197	    -24.58423456	      1.72215796	    112.87556519	     65.50536280	     -2.23581246	    -33.28066125	      0.33734581	    123.56686439	     97.35177606	      0.00000000	      0.00000000	      0.00000000	      0.00000000	      0.00000000	      0.00000000	      0.00000000	      0.00000000	      0.75277790	      0.99981159	     -0.50972362	      0.75335618	      1.01693645	     -0.25937028	      0.58385630	      1.02754190	     -0.40825753	      0.58844674	      1.02974323	     -0.32280102	      0.78028305	      0.84979485	     -0.20334420	      0.89545787	      0.77782208	     -0.22209551	      0.89068827	      0.64146183	     -0.20497232	      0.68832738	      0.85793178	     -0.54014168	      0.72034083	      0.73898310	     -0.52246203	      0.62045833	      0.61560399	     -0.50970807	      0.87521662	      0.46102722	     -0.27199666	      0.79766758	      0.45190345	     -0.22133577	      0.71897949	      0.37365335	     -0.29161729	      0.59255180	      0.37210857	     -0.43307074	      0.50446126	      0.29616354	     -0.48014621	      0.48589728	      0.21582200	     -0.40719467	      0.55022187	      0.39109172	     -0.30235581	      0.65347479	      0.19747367	     -0.31473930	      0.61310757	      0.20910898	     -0.22594299	      0.32271069	      0.14970239	     -0.40414407	      0.52612320	      0.07362045	     -0.39459041	      0.48617219	      0.05930018	     -0.47627728	      0.76731960	      1.43971423	     -0.57128754	      0.70812375	      1.47143042	     -0.20148492	      0.83249411	      1.42280227	     -0.34005035	      0.70676960	      1.51035245	     -0.39664344	      0.64791551	      1.38620465	     -0.13671934	      0.64414623	      1.31571153	     -0.12813145	      0.54039805	      1.33426597	     -0.11661226	      0.53769658	      1.24926118	     -0.06684947	      0.49364110	      1.23648682	     -0.14416586	      0.74806519	      1.36588529	     -0.62849932	      0.68786182	      1.29604376	     -0.62440265	      0.74563540	      1.28036795	     -0.67335865	      0.73916935	      1.18041677	     -0.72436226	      0.69393116	      1.12645890	     -0.66715267	      0.60949238	      1.20396383	     -0.07721007	      0.74298177	      1.12921729	     -0.14362831	      0.69498860	      1.07977924	     -0.14241880	      0.80499959	      1.19296703	     -0.69314092	      0.91495651	      1.20505630	     -0.55628918	      0.93651028	      1.15082866	     -0.58898183
      1.38333300	      1.55869282	     -0.84529915	      7.27517575	      0.74979042	      0.99426732	     -0.38174993	     35.43667102	     -4.48179194	     -8.70318892	    -86.98200587	     -5.49764184	    -13.34084701	      0.83306295	      5.88280687	    -17.05684589	      4.83468940	    -15.19627236	      1.17321742	    -15.61629675	    -34.44876990	    -25.05156270	      0.55944417	    113.61193592	     66.01086281	     -2.92822336	    -33.28282271	      1.30107029	    124.59844250	     96.09523929	      0.00000000	      0.00000000	      0.00000000	      0.00000000	      0.00000000	      0.00000000	      0.00000000	      0.00000000	      0.75453873	      1.00336871	     -0.50969828	      0.75441667	      1.02396977	     -0.26087500	      0.58651225	      1.03329148	     -0.40946154	      0.59021204	      1.03609787	     -0.32318061	      0.78415782	      0.85793578	     -0.20350040	      0.89914782	      0.78692535	     -0.22329627	      0.89539505	      0.64929647	     -0.20665407	      0.68670217	      0.86170050	     -0.53946453	      0.71468244	      0.74225393	     -0.52136002	      0.60981569	      0.62288539	     -0.50886705	      0.88886935	      0.46507974	     -0.27422542	      0.81230403	      0.44906382	     -0.22373310	      0.74044307	      0.36466166	     -0.29395045	      0.57557077	      0.38031563	     -0.43417218	      0.48697236	      0.30580920	     -0.48250765	      0.46768929	      0.22403524	     -0.40935966	      0.57039109	      0.36773282	     -0.30640773	      0.69063156	      0.18409526	     -0.31552042	      0.64889100	      0.19321273	     -0.22722565	      0.30541583	      0.16111334	     -0.40786111	      0.50369985	      0.07391474	     -0.39576887	      0.46219128	      0.05964848	     -0.47639693	      0.77125214	      1.44694494	     -0.56917233	      0.70567294	      1.47737886	     -0.20115868	      0.83182983	      1.42948853	     -0.33724937	      0.70742797	      1.51607544	     -0.39563287	      0.64426343	      1.39369685	     -0.13686136	      0.64012725	      1.32335962	     -0.12746166	      0.53613904	      1.34254443	     -0.11839857	      0.53161926	      1.25828830	     -0.06809928	      0.48872677	      1.24491144	     -0.14625593	      0.75305273	      1.37376158	     -0.62729250	      0.69208503	      1.30485678	     -0.62587925	      0.75145181	      1.28804871	     -0.67209986	      0.74450634	      1.18832211	     -0.72332937	      0.69587812	      1.13501491	     -0.66769097	      0.60367920	      1.21338584	     -0.07623762	      0.73850292	      1.13833068	     -0.13942139	      0.69100841	      1.08848754	     -0.13818738	      0.80940396	      1.20084999	     -0.69079187	      0.91445499	      1.21373803	     -0.55014732	      0.93629727	      1.15855909	     -0.58072921
